<svg width="202" height="47" viewBox="0 0 202 47" fill="none" xmlns="http://www.w3.org/2000/svg">
<path d="M18.008 33.008C18.008 35.056 18.9253 36.08 20.76 36.08H25.88C26.3493 36.08 26.7547 36.2507 27.096 36.592C27.4373 36.9333 27.608 37.3387 27.608 37.808V44.272C27.608 44.7413 27.4373 45.1467 27.096 45.488C26.7547 45.8293 26.3493 46 25.88 46H19.8C15.7467 46 12.504 44.8693 10.072 42.608C7.68267 40.3467 6.488 37.2747 6.488 33.392V22.64H1.752C1.28267 22.64 0.877333 22.4693 0.536 22.128C0.194667 21.7867 0.024 21.3813 0.024 20.912V14.448C0.024 13.9787 0.194667 13.5733 0.536 13.232C0.877333 12.8907 1.28267 12.72 1.752 12.72H6.488V2.288C6.488 1.81867 6.65867 1.41333 7 1.072C7.34133 0.730665 7.74667 0.559998 8.216 0.559998H16.28C16.7493 0.559998 17.1547 0.730665 17.496 1.072C17.8373 1.41333 18.008 1.81867 18.008 2.288V12.72H25.24C25.7093 12.72 26.1147 12.8907 26.456 13.232C26.7973 13.5733 26.968 13.9787 26.968 14.448V20.912C26.968 21.3813 26.7973 21.7867 26.456 22.128C26.1147 22.4693 25.7093 22.64 25.24 22.64H18.008V33.008ZM52.0965 24.24C52.0965 21.8933 50.8592 20.72 48.3845 20.72C46.9765 20.72 45.8245 21.104 44.9285 21.872C44.5872 22.2133 44.2458 22.4267 43.9045 22.512C43.5632 22.5973 43.1365 22.64 42.6245 22.64H34.4965C34.0698 22.64 33.7072 22.512 33.4085 22.256C33.1525 22 33.0458 21.6587 33.0885 21.232C33.2165 19.9093 33.9418 18.544 35.2645 17.136C36.6298 15.6853 38.4645 14.4907 40.7685 13.552C43.0725 12.5707 45.6112 12.08 48.3845 12.08C53.4618 12.08 57.2592 13.232 59.7765 15.536C62.3365 17.84 63.6165 20.9547 63.6165 24.88V44.272C63.6165 44.7413 63.4458 45.1467 63.1045 45.488C62.7632 45.8293 62.3578 46 61.8885 46H53.8245C53.3552 46 52.9498 45.8293 52.6085 45.488C52.2672 45.1467 52.0965 44.7413 52.0965 44.272V42.48C50.9872 43.8453 49.6645 44.8907 48.1285 45.616C46.5925 46.2987 44.6512 46.64 42.3045 46.64C38.7205 46.64 35.9045 45.7013 33.8565 43.824C31.8512 41.9467 30.8485 39.5147 30.8485 36.528C30.8485 33.6693 31.9578 31.3227 34.1765 29.488C36.3952 27.6533 39.8725 26.3307 44.6085 25.52L52.0965 24.24ZM46.2085 32.752C45.0138 32.9653 44.0752 33.3493 43.3925 33.904C42.7098 34.416 42.3685 35.056 42.3685 35.824C42.3685 37.2747 43.3925 38 45.4405 38C47.3178 38 48.8965 37.4027 50.1765 36.208C51.4565 35.0133 52.0965 33.5627 52.0965 31.856L46.2085 32.752ZM92.344 2.288C92.344 1.81867 92.5147 1.41333 92.856 1.072C93.1973 0.730665 93.6027 0.559998 94.072 0.559998H102.136C102.605 0.559998 103.011 0.730665 103.352 1.072C103.693 1.41333 103.864 1.81867 103.864 2.288V44.272C103.864 44.7413 103.693 45.1467 103.352 45.488C103.011 45.8293 102.605 46 102.136 46H94.392C93.9227 46 93.5173 45.8293 93.176 45.488C92.8347 45.1467 92.664 44.7413 92.664 44.272V42.8C91.9813 43.6107 91.32 44.272 90.68 44.784C90.0827 45.296 89.208 45.7227 88.056 46.064C86.9467 46.448 85.5173 46.64 83.768 46.64C79.7147 46.64 76.344 45.4027 73.656 42.928C71.0107 40.4533 69.6027 36.8053 69.432 31.984L69.368 29.36L69.432 26.8C69.6027 21.9787 71.0107 18.3307 73.656 15.856C76.3013 13.3387 79.672 12.08 83.768 12.08C85.9867 12.08 87.7787 12.464 89.144 13.232C90.5093 14 91.576 14.896 92.344 15.92V2.288ZM80.888 31.152C81.016 32.816 81.528 34.16 82.424 35.184C83.3627 36.208 84.7707 36.72 86.648 36.72C88.3973 36.72 89.72 36.2293 90.616 35.248C91.5547 34.2667 92.1307 33.0507 92.344 31.6C92.4293 31.1733 92.472 30.4267 92.472 29.36C92.472 28.2933 92.4293 27.5467 92.344 27.12C92.1733 25.712 91.6187 24.5173 90.68 23.536C89.7413 22.512 88.3973 22 86.648 22C84.7707 22 83.3627 22.512 82.424 23.536C81.528 24.56 81.016 25.904 80.888 27.568C80.8453 27.9947 80.824 28.592 80.824 29.36C80.824 30.128 80.8453 30.7253 80.888 31.152ZM144.683 31.856C144.555 34.5867 143.765 37.0827 142.315 39.344C140.864 41.5627 138.837 43.3333 136.235 44.656C133.632 45.9787 130.645 46.64 127.275 46.64C123.904 46.64 120.917 45.9787 118.315 44.656C115.712 43.3333 113.685 41.5627 112.235 39.344C110.784 37.0827 109.995 34.5867 109.867 31.856L109.803 29.36L109.867 26.928C109.952 24.1973 110.72 21.7013 112.171 19.44C113.621 17.1787 115.648 15.3867 118.251 14.064C120.896 12.7413 123.904 12.08 127.275 12.08C130.645 12.08 133.632 12.7413 136.235 14.064C138.88 15.3867 140.928 17.1787 142.379 19.44C143.829 21.7013 144.597 24.1973 144.683 26.928C144.725 27.3547 144.747 28.1653 144.747 29.36C144.747 30.5973 144.725 31.4293 144.683 31.856ZM127.275 36.72C128.981 36.72 130.347 36.272 131.371 35.376C132.437 34.4373 133.035 33.1573 133.163 31.536C133.248 30.6827 133.291 29.9573 133.291 29.36C133.291 28.7627 133.248 28.0373 133.163 27.184C133.035 25.5627 132.437 24.304 131.371 23.408C130.347 22.4693 128.981 22 127.275 22C125.568 22 124.181 22.4693 123.115 23.408C122.091 24.304 121.515 25.5627 121.387 27.184C121.344 27.6107 121.323 28.336 121.323 29.36C121.323 30.384 121.344 31.1093 121.387 31.536C121.515 33.1573 122.091 34.4373 123.115 35.376C124.181 36.272 125.568 36.72 127.275 36.72ZM184.12 31.856C183.992 34.5867 183.203 37.0827 181.752 39.344C180.301 41.5627 178.275 43.3333 175.672 44.656C173.069 45.9787 170.083 46.64 166.712 46.64C163.341 46.64 160.355 45.9787 157.752 44.656C155.149 43.3333 153.123 41.5627 151.672 39.344C150.221 37.0827 149.432 34.5867 149.304 31.856L149.24 29.36L149.304 26.928C149.389 24.1973 150.157 21.7013 151.608 19.44C153.059 17.1787 155.085 15.3867 157.688 14.064C160.333 12.7413 163.341 12.08 166.712 12.08C170.083 12.08 173.069 12.7413 175.672 14.064C178.317 15.3867 180.365 17.1787 181.816 19.44C183.267 21.7013 184.035 24.1973 184.12 26.928C184.163 27.3547 184.184 28.1653 184.184 29.36C184.184 30.5973 184.163 31.4293 184.12 31.856ZM166.712 36.72C168.419 36.72 169.784 36.272 170.808 35.376C171.875 34.4373 172.472 33.1573 172.6 31.536C172.685 30.6827 172.728 29.9573 172.728 29.36C172.728 28.7627 172.685 28.0373 172.6 27.184C172.472 25.5627 171.875 24.304 170.808 23.408C169.784 22.4693 168.419 22 166.712 22C165.005 22 163.619 22.4693 162.552 23.408C161.528 24.304 160.952 25.5627 160.824 27.184C160.781 27.6107 160.76 28.336 160.76 29.36C160.76 30.384 160.781 31.1093 160.824 31.536C160.952 33.1573 161.528 34.4373 162.552 35.376C163.619 36.272 165.005 36.72 166.712 36.72ZM201.862 30.512C201.862 30.9813 201.691 31.3867 201.35 31.728C201.008 32.0693 200.603 32.24 200.134 32.24H192.07C191.6 32.24 191.195 32.0693 190.854 31.728C190.512 31.3867 190.342 30.9813 190.342 30.512V2.928C190.342 2.45867 190.512 2.05333 190.854 1.712C191.195 1.37066 191.6 1.2 192.07 1.2H200.134C200.603 1.2 201.008 1.37066 201.35 1.712C201.691 2.05333 201.862 2.45867 201.862 2.928V30.512ZM201.862 44.272C201.862 44.7413 201.691 45.1467 201.35 45.488C201.008 45.8293 200.603 46 200.134 46H192.07C191.6 46 191.195 45.8293 190.854 45.488C190.512 45.1467 190.342 44.7413 190.342 44.272V37.808C190.342 37.3387 190.512 36.9333 190.854 36.592C191.195 36.2507 191.6 36.08 192.07 36.08H200.134C200.603 36.08 201.008 36.2507 201.35 36.592C201.691 36.9333 201.862 37.3387 201.862 37.808V44.272Z" fill="white"/>
</svg>
